<?xml version="1.0" encoding="UTF-8" standalone="no"?>
<svg
   viewBox="0 0 48 48"
   version="1.1"
   id="svg16863"
   sodipodi:docname="cook.svg"
   inkscape:version="1.1 (c68e22c387, 2021-05-23)"
   xmlns:inkscape="http://www.inkscape.org/namespaces/inkscape"
   xmlns:sodipodi="http://sodipodi.sourceforge.net/DTD/sodipodi-0.dtd"
   xmlns:xlink="http://www.w3.org/1999/xlink"
   xmlns="http://www.w3.org/2000/svg"
   xmlns:svg="http://www.w3.org/2000/svg"
   xmlns:rdf="http://www.w3.org/1999/02/22-rdf-syntax-ns#"
   xmlns:cc="http://creativecommons.org/ns#"
   xmlns:dc="http://purl.org/dc/elements/1.1/">
  <sodipodi:namedview
     id="namedview16865"
     pagecolor="#ffffff"
     bordercolor="#666666"
     borderopacity="1.0"
     inkscape:pageshadow="2"
     inkscape:pageopacity="0.0"
     inkscape:pagecheckerboard="0"
     showgrid="false"
     inkscape:zoom="15.6875"
     inkscape:cx="24"
     inkscape:cy="24"
     inkscape:window-width="2880"
     inkscape:window-height="1557"
     inkscape:window-x="-8"
     inkscape:window-y="-8"
     inkscape:window-maximized="1"
     inkscape:current-layer="svg16863" />
  <defs
     id="defs16789">
    <style
       id="style16749">.cls-1,.cls-12,.cls-14,.cls-26,.cls-6{fill:none;}.cls-2{fill:url(#radial-gradient);}.cls-3{fill:#555753;}.cls-17,.cls-21,.cls-26,.cls-4,.cls-9{opacity:0.5;}.cls-4{fill:url(#linear-gradient);}.cls-5{fill:url(#linear-gradient-2);}.cls-6{stroke:#2e3436;}.cls-12,.cls-14,.cls-6{stroke-miterlimit:10;}.cls-14,.cls-6{stroke-width:0.7px;}.cls-7{fill:#2e3436;}.cls-8{fill:#d3d7cf;}.cls-10{fill:url(#linear-gradient-3);}.cls-11{fill:url(#linear-gradient-4);}.cls-12{stroke:#555753;stroke-width:0.4px;}.cls-13{fill:#c00;}.cls-14{stroke:#a40000;}.cls-15{fill:#616260;}.cls-16{fill:url(#linear-gradient-5);}.cls-17{fill:url(#radial-gradient-2);}.cls-18{fill:url(#radial-gradient-3);}.cls-19{fill:#fff;}.cls-20{fill:#fcaf3e;}.cls-21{fill:#f57900;}.cls-22{fill:url(#linear-gradient-6);}.cls-23{fill:url(#linear-gradient-7);}.cls-24{fill:#ad5353;}.cls-25{clip-path:url(#clip-path);}.cls-26{stroke:#e9b96e;stroke-linecap:round;stroke-linejoin:round;stroke-width:0.49px;}.cls-27{clip-path:url(#clip-path-2);}</style>
    <radialGradient
       id="radial-gradient"
       cx="-129.27"
       cy="96.97"
       r="21.17"
       gradientTransform="matrix(1.06,0.05,-0.08,0.7,168.76,-30.84)"
       gradientUnits="userSpaceOnUse">
      <stop
         offset="0.35"
         stop-color="#2c2c2c"
         stop-opacity="0.5"
         id="stop16751" />
      <stop
         offset="0.81"
         stop-color="#2c2c2c"
         stop-opacity="0.1"
         id="stop16753" />
      <stop
         offset="0.95"
         stop-color="#2c2c2c"
         stop-opacity="0"
         id="stop16755" />
    </radialGradient>
    <linearGradient
       id="linear-gradient"
       x1="33.08"
       y1="9.35"
       x2="35.76"
       y2="12.29"
       gradientTransform="matrix(1, 0.03, -0.03, 1, 0.25, -1.05)"
       gradientUnits="userSpaceOnUse">
      <stop
         offset="0.5"
         stop-color="snow"
         id="stop16758" />
      <stop
         offset="1"
         stop-color="#fff"
         stop-opacity="0"
         id="stop16760" />
    </linearGradient>
    <linearGradient
       id="linear-gradient-2"
       x1="35.97"
       y1="11.96"
       x2="36.99"
       y2="12.97"
       gradientTransform="matrix(1, 0.03, -0.03, 1, 0.25, -1.05)"
       gradientUnits="userSpaceOnUse">
      <stop
         offset="0"
         stop-color="#2e3436"
         stop-opacity="0"
         id="stop16763" />
      <stop
         offset="1"
         stop-color="#2e3436"
         id="stop16765" />
    </linearGradient>
    <linearGradient
       id="linear-gradient-3"
       x1="29.8"
       y1="15.71"
       x2="30.36"
       y2="16.52"
       xlink:href="#linear-gradient" />
    <linearGradient
       id="linear-gradient-4"
       x1="31.24"
       y1="15.9"
       x2="33.28"
       y2="17.68"
       xlink:href="#linear-gradient-2" />
    <linearGradient
       id="linear-gradient-5"
       x1="15.59"
       y1="28.48"
       x2="10.56"
       y2="33.01"
       xlink:href="#linear-gradient-2" />
    <radialGradient
       id="radial-gradient-2"
       cx="23.77"
       cy="41"
       r="31.26"
       xlink:href="#linear-gradient" />
    <radialGradient
       id="radial-gradient-3"
       cx="26.71"
       cy="20.09"
       r="19.53"
       gradientTransform="rotate(7.39,23.753565,28.320812)"
       gradientUnits="userSpaceOnUse">
      <stop
         offset="0"
         stop-color="#888a85"
         id="stop16772" />
      <stop
         offset="1"
         stop-color="#1d2426"
         id="stop16774" />
    </radialGradient>
    <linearGradient
       id="linear-gradient-6"
       x1="22.9"
       y1="23.27"
       x2="23.47"
       y2="21.36"
       gradientUnits="userSpaceOnUse">
      <stop
         offset="0"
         stop-color="#fef6b3"
         id="stop16777" />
      <stop
         offset="1"
         stop-color="#fef6b3"
         stop-opacity="0"
         id="stop16779" />
    </linearGradient>
    <linearGradient
       id="linear-gradient-7"
       x1="28.48"
       y1="26.34"
       x2="28.91"
       y2="23.98"
       xlink:href="#linear-gradient-6" />
    <clipPath
       id="clip-path">
      <path
         class="cls-1"
         d="M28.43,32.18a4.76,4.76,0,0,1-2-1,2.54,2.54,0,0,0-1-.55,3.69,3.69,0,0,0-1.33-.16,7.55,7.55,0,0,1-2.47-.33,5.1,5.1,0,0,1-2-1,2.48,2.48,0,0,0-1-.55,3.86,3.86,0,0,0-1.32-.17,7.22,7.22,0,0,1-2.47-.32,5,5,0,0,1-1.95-1,2.54,2.54,0,0,0-1-.55l1.63-2.19a4.78,4.78,0,0,1,1.95,1,2.43,2.43,0,0,0,1,.54,3.42,3.42,0,0,0,1.32.17,7.52,7.52,0,0,1,2.47.33,5,5,0,0,1,2,1,2.31,2.31,0,0,0,1,.54,3.44,3.44,0,0,0,1.32.17,7.5,7.5,0,0,1,2.47.33,5,5,0,0,1,2,1,2.6,2.6,0,0,0,1,.55Z"
         id="path16783" />
    </clipPath>
    <clipPath
       id="clip-path-2">
      <path
         class="cls-1"
         d="M29.33,34.37a5.08,5.08,0,0,1-2-.82,2.55,2.55,0,0,0-1.09-.45,3.6,3.6,0,0,0-1.34,0A7.5,7.5,0,0,1,22.36,33a4.93,4.93,0,0,1-2.05-.82,2.44,2.44,0,0,0-1.09-.44,3.57,3.57,0,0,0-1.33,0,7.18,7.18,0,0,1-2.49-.08,5.09,5.09,0,0,1-2-.82,2.43,2.43,0,0,0-1.09-.45L13.67,28a5.08,5.08,0,0,1,2.05.82,2.38,2.38,0,0,0,1.09.44,3.57,3.57,0,0,0,1.33,0,7.72,7.72,0,0,1,2.49.08,4.92,4.92,0,0,1,2,.83,2.55,2.55,0,0,0,1.09.44,3.63,3.63,0,0,0,1.34,0,7.18,7.18,0,0,1,2.49.08,5.08,5.08,0,0,1,2.05.82,2.44,2.44,0,0,0,1.09.45Z"
         id="path16786" />
    </clipPath>
    <linearGradient
       inkscape:collect="always"
       xlink:href="#linear-gradient"
       id="linearGradient16924"
       gradientUnits="userSpaceOnUse"
       gradientTransform="matrix(1,0.03,-0.03,1,0.25,-1.05)"
       x1="33.08"
       y1="9.35"
       x2="35.76"
       y2="12.29" />
    <linearGradient
       inkscape:collect="always"
       xlink:href="#linear-gradient-2"
       id="linearGradient16926"
       gradientUnits="userSpaceOnUse"
       gradientTransform="matrix(1,0.03,-0.03,1,0.25,-1.05)"
       x1="35.97"
       y1="11.96"
       x2="36.99"
       y2="12.97" />
    <linearGradient
       inkscape:collect="always"
       xlink:href="#linear-gradient-6"
       id="linearGradient16928"
       gradientUnits="userSpaceOnUse"
       x1="22.9"
       y1="23.27"
       x2="23.47"
       y2="21.36" />
  </defs>
  <title
     id="title16791">19-Cooking</title>
  <g
     id="shadow"
     transform="matrix(1.1078764,0,0,1,-2.3468577,3.8884462)"
     style="stroke-width:0.950067">
    <ellipse
       class="cls-2"
       cx="23.82"
       cy="29.73"
       rx="21.65"
       ry="14.26"
       transform="rotate(-6.63,23.830144,29.702465)"
       id="ellipse16793"
       style="fill:url(#radial-gradient);stroke-width:0.950067" />
  </g>
  <g
     id="ART"
     transform="matrix(1.4098914,0,0,1.4107114,-10.40557,-11.160786)"
     style="stroke-width:0.709068">
    <path
       class="cls-3"
       d="m 30.52,15.72 a 1.33,1.33 0 0 1 0.11,-1.39 15.59,15.59 0 0 1 4.7,-4.1 13.94,13.94 0 0 1 3.77,-1.78 4.36,4.36 0 0 1 1.39,0 c 0.46,0.07 1,0.58 0.43,1 a 42,42 0 0 0 -4.57,3.76 c -1.57,1.68 -2,2.26 -2.4,2.67 a 2.29,2.29 0 0 1 -2.44,0.63 1.9,1.9 0 0 1 -0.99,-0.79 z"
       id="path16796"
       style="stroke-width:0.709068" />
    <path
       class="cls-4"
       d="m 40.63,8.43 v 0.08 a 17.22,17.22 0 0 0 -5.53,2.54 9,9 0 0 0 -2.84,2.57 c -0.06,0.19 0.41,0.27 0.77,0.6 0.36,0.33 0,0.71 -0.47,0.53 a 1.31,1.31 0 0 0 -1.3,0.44 2.32,2.32 0 0 1 -0.69,0.55 v 0 a 1.33,1.33 0 0 1 0.1,-1.38 16.26,16.26 0 0 1 4.71,-4.11 14,14 0 0 1 3.72,-1.8 4.36,4.36 0 0 1 1.39,0 z"
       id="path16798"
       style="fill:url(#linearGradient16924);stroke-width:0.709068" />
    <path
       class="cls-5"
       d="m 40.93,9.44 a 38.91,38.91 0 0 0 -4.58,3.76 c -1.57,1.68 -2,2.25 -2.4,2.68 a 2.25,2.25 0 0 1 -1.6,0.76 14.9,14.9 0 0 1 4.54,-5.21 18.09,18.09 0 0 1 4.23,-2.58 0.5,0.5 0 0 1 -0.19,0.59 z"
       id="path16800"
       style="fill:url(#linearGradient16926);stroke-width:0.709068" />
    <path
       class="cls-6"
       d="m 30.52,15.72 a 1.33,1.33 0 0 1 0.11,-1.39 15.59,15.59 0 0 1 4.7,-4.1 13.94,13.94 0 0 1 3.77,-1.78 4.36,4.36 0 0 1 1.39,0 c 0.46,0.07 1,0.58 0.43,1 a 42,42 0 0 0 -4.57,3.76 c -1.57,1.68 -2,2.26 -2.4,2.67 a 2.29,2.29 0 0 1 -2.44,0.63 1.9,1.9 0 0 1 -0.99,-0.79 z"
       id="path16802" />
    <path
       class="cls-7"
       d="m 39.87,8.82 c -0.21,-0.15 -0.67,0 -1.08,0.13 -0.41,0.13 -0.38,0.44 -0.27,0.51 A 1.09,1.09 0 0 0 39.39,9.31 C 39.74,9.09 40.06,9 39.87,8.82 Z"
       id="path16804"
       style="stroke-width:0.709068" />
    <path
       class="cls-8"
       d="M 28.16,17.8 A 17.77,17.77 0 0 1 30.68,14.87 1.49,1.49 0 0 1 32.1,14.6 1.28,1.28 0 0 1 33,16 4.07,4.07 0 0 1 32.18,17.51 10.34,10.34 0 0 0 31.32,19 Z"
       id="path16806"
       style="stroke-width:0.709068" />
    <g
       class="cls-9"
       id="g16810"
       style="stroke-width:0.709068">
      <path
         class="cls-10"
         d="m 32.08,14.6 a 12.6,12.6 0 0 0 -1.88,2.45 l -2,0.73 a 18.08,18.08 0 0 1 2.49,-2.91 1.51,1.51 0 0 1 1.39,-0.27 z"
         id="path16808"
         style="fill:url(#linear-gradient-3);stroke-width:0.709068" />
    </g>
    <path
       class="cls-11"
       d="m 33,15.89 a 4,4 0 0 1 -0.82,1.5 7.47,7.47 0 0 0 -0.64,1.06 L 31,17.28 A 16.34,16.34 0 0 1 32.8,15 1.14,1.14 0 0 1 33,15.89 Z"
       id="path16812"
       style="fill:url(#linear-gradient-4);stroke-width:0.709068" />
    <path
       class="cls-12"
       d="M 28.16,17.8 A 17.77,17.77 0 0 1 30.68,14.87 1.49,1.49 0 0 1 32.1,14.6 1.28,1.28 0 0 1 33,16 4.07,4.07 0 0 1 32.18,17.51 10.34,10.34 0 0 0 31.32,19 Z"
       id="path16814" />
    <path
       class="cls-13"
       d="m 37.18,29 c 0,0 -0.47,-1 -1.3,-1 0.09,-3.94 -4.48,-5 -10.69,-5 -6.61,0 -12.61,3.47 -13.44,7.77 -1.06,0.06 -1.74,0.1 -1.85,0.14 -0.72,0.26 0.47,1.63 0.47,1.63 a 35.3,35.3 0 0 0 3.74,3.71 v 0 a 13.51,13.51 0 0 0 8.21,2.4 c 5,0 9.6,-2 12,-4.81 A 36,36 0 0 0 37.18,29 Z"
       id="path16816"
       style="stroke-width:0.709068" />
    <path
       class="cls-14"
       d="m 37.18,29 c 0,0 -0.47,-1 -1.3,-1 0.09,-3.94 -4.48,-5 -10.69,-5 -6.61,0 -12.61,3.47 -13.44,7.77 -1.06,0.06 -1.74,0.1 -1.85,0.14 -0.72,0.26 0.47,1.63 0.47,1.63 a 35.3,35.3 0 0 0 3.74,3.71 v 0 a 13.51,13.51 0 0 0 8.21,2.4 c 5,0 9.6,-2 12,-4.81 A 36,36 0 0 0 37.18,29 Z"
       id="path16818" />
    <ellipse
       class="cls-15"
       cx="23.200001"
       cy="26.17"
       rx="15.31"
       ry="9.7299995"
       transform="rotate(-7.39,23.190676,26.143404)"
       id="ellipse16820"
       style="stroke-width:0.709068" />
    <path
       class="cls-16"
       d="M 19.6,36 C 12.2,35.42 7.15,31.26 8.08,26.22 a 8.1,8.1 0 0 1 1.58,-3.43 c -0.91,1.48 -2.65,8 5,10.57 A 14,14 0 0 1 19.6,36 Z"
       id="path16822"
       style="fill:url(#linear-gradient-5);stroke-width:0.709068" />
    <path
       class="cls-17"
       d="m 38.33,23.85 c -0.48,4 -4.18,6.23 -4.18,6.23 0,0 -16.9,0.26 -20.87,-3.79 -2.79,-2.85 -0.22,-6 2.49,-8.09 A 23.24,23.24 0 0 1 25,16.32 c 7.13,0 12.52,3.2 13.33,7.53 z"
       id="path16824"
       style="fill:url(#radial-gradient-2);stroke-width:0.709068" />
    <ellipse
       class="cls-6"
       cx="23.200001"
       cy="26.17"
       rx="15.31"
       ry="9.7299995"
       transform="rotate(-7.39,23.190676,26.143404)"
       id="ellipse16826" />
    <ellipse
       class="cls-18"
       cx="23.75"
       cy="28.360001"
       rx="12.6"
       ry="8.0100002"
       transform="rotate(-7.39,23.747492,28.356276)"
       id="ellipse16828"
       style="fill:url(#radial-gradient-3);stroke-width:0.709068" />
    <path
       class="cls-19"
       d="m 23.15,21.05 a 6.94,6.94 0 0 0 -3.34,1.16 1.92,1.92 0 0 0 -0.74,2.48 c 0.51,1 2.25,1.63 3.25,1.74 1,0.11 1.6,0.12 1.79,1.09 0.19,0.97 -0.12,2.1 1,2.91 1.12,0.81 2.78,0.11 3.29,0 A 37,37 0 0 1 32.29,30.28 2.81,2.81 0 0 0 35,27.74 3.19,3.19 0 0 0 33.44,24.67 8,8 0 0 0 29.34,24 1.67,1.67 0 0 1 27.63,22.83 2.91,2.91 0 0 0 25.87,21.2 10.28,10.28 0 0 0 23.15,21.05 Z"
       id="path16830"
       style="stroke-width:0.709068" />
    <circle
       class="cls-7"
       cx="29.57"
       cy="18.75"
       r="0.49000001"
       id="circle16832"
       style="stroke-width:0.709068" />
    <path
       class="cls-20"
       d="m 21.5,24.24 c 0.39,0.78 1.71,1.15 2.95,0.82 1.24,-0.33 1.92,-1.24 1.53,-2 a 2.32,2.32 0 0 0 -2.62,-1.11 c -1.43,0.25 -2.25,1.5 -1.86,2.29 z"
       id="path16834"
       style="stroke-width:0.709068" />
    <path
       class="cls-21"
       d="m 21.5,24.24 c 0.39,0.78 1.72,1.15 2.95,0.82 a 3.6,3.6 0 0 0 0.84,-0.36 1.35,1.35 0 0 0 0.42,-1.36 c -0.2,-0.44 -0.37,-0.1 -0.63,0.09 a 3.37,3.37 0 0 1 -2.1,0.87 1.42,1.42 0 0 1 -1.49,-0.93 1.05,1.05 0 0 0 0.01,0.87 z"
       id="path16836"
       style="stroke-width:0.709068" />
    <path
       class="cls-22"
       d="m 24.08,22.11 a 2.37,2.37 0 0 0 -1.73,0.52 c -0.35,0.33 -0.22,0.93 0.18,0.87 a 1.09,1.09 0 0 0 0.79,-0.7 1.09,1.09 0 0 1 0.76,-0.69 z"
       id="path16838"
       style="fill:url(#linearGradient16928);stroke-width:0.709068" />
    <path
       class="cls-20"
       d="m 26.92,27.18 c 0.42,0.84 1.84,1.24 3.17,0.88 1.33,-0.36 2.08,-1.34 1.66,-2.18 a 2.5,2.5 0 0 0 -2.83,-1.2 c -1.54,0.32 -2.42,1.65 -2,2.5 z"
       id="path16840"
       style="stroke-width:0.709068" />
    <path
       class="cls-21"
       d="m 26.91,27.18 c 0.43,0.84 1.86,1.24 3.18,0.88 A 3.29,3.29 0 0 0 31,27.67 1.44,1.44 0 0 0 31.45,26.2 c -0.21,-0.47 -0.4,-0.1 -0.68,0.11 a 3.53,3.53 0 0 1 -2.26,0.93 1.51,1.51 0 0 1 -1.6,-1 1.18,1.18 0 0 0 0,0.94 z"
       id="path16842"
       style="stroke-width:0.709068" />
    <path
       class="cls-23"
       d="m 29.69,24.88 a 2.53,2.53 0 0 0 -1.86,0.57 c -0.37,0.35 -0.24,1 0.2,0.93 a 1.19,1.19 0 0 0 0.85,-0.75 1.18,1.18 0 0 1 0.81,-0.75 z"
       id="path16844"
       style="fill:url(#linear-gradient-7);stroke-width:0.709068" />
    <path
       class="cls-24"
       d="m 28.43,32.18 a 4.76,4.76 0 0 1 -2,-1 2.54,2.54 0 0 0 -1,-0.55 3.69,3.69 0 0 0 -1.33,-0.16 7.55,7.55 0 0 1 -2.47,-0.33 5.1,5.1 0 0 1 -2,-1 2.48,2.48 0 0 0 -1,-0.55 3.86,3.86 0 0 0 -1.32,-0.17 7.22,7.22 0 0 1 -2.47,-0.32 5,5 0 0 1 -1.95,-1 2.54,2.54 0 0 0 -1,-0.55 l 1.63,-2.19 a 4.78,4.78 0 0 1 1.95,1 2.43,2.43 0 0 0 1,0.54 3.42,3.42 0 0 0 1.32,0.17 7.52,7.52 0 0 1 2.47,0.33 5,5 0 0 1 2,1 2.31,2.31 0 0 0 1,0.54 3.44,3.44 0 0 0 1.32,0.17 7.5,7.5 0 0 1 2.47,0.33 5,5 0 0 1 2,1 2.6,2.6 0 0 0 1,0.55 z"
       id="path16846"
       style="stroke-width:0.709068" />
    <g
       class="cls-25"
       clip-path="url(#clip-path)"
       id="g16852"
       style="stroke-width:0.709068">
      <path
         class="cls-26"
         d="m 12.28,25.91 a 5,5 0 0 1 2,1 2.27,2.27 0 0 0 1,0.55 3.42,3.42 0 0 0 1.32,0.17 7.55,7.55 0 0 1 2.47,0.33 4.92,4.92 0 0 1 1.93,1.04 2.33,2.33 0 0 0 1,0.55 3.51,3.51 0 0 0 1.33,0.17 7.52,7.52 0 0 1 2.47,0.33 5,5 0 0 1 2,1 2.6,2.6 0 0 0 1,0.55"
         id="path16848" />
      <path
         class="cls-26"
         d="m 13,25 a 5,5 0 0 1 2,1 2.37,2.37 0 0 0 1,0.54 3.42,3.42 0 0 0 1.32,0.17 7.55,7.55 0 0 1 2.47,0.33 4.9,4.9 0 0 1 1.95,1 2.43,2.43 0 0 0 1,0.54 3.51,3.51 0 0 0 1.33,0.17 7.5,7.5 0 0 1 2.47,0.33 5,5 0 0 1 2,1 2.6,2.6 0 0 0 1,0.55"
         id="path16850" />
    </g>
    <path
       class="cls-24"
       d="m 29.33,34.37 a 5.08,5.08 0 0 1 -2,-0.82 2.55,2.55 0 0 0 -1.09,-0.45 3.6,3.6 0 0 0 -1.34,0 7.5,7.5 0 0 1 -2.54,-0.1 4.93,4.93 0 0 1 -2.05,-0.82 2.44,2.44 0 0 0 -1.09,-0.44 3.57,3.57 0 0 0 -1.33,0 7.18,7.18 0 0 1 -2.49,-0.08 5.09,5.09 0 0 1 -2,-0.82 2.43,2.43 0 0 0 -1.09,-0.45 L 13.67,28 a 5.08,5.08 0 0 1 2.05,0.82 2.38,2.38 0 0 0 1.09,0.44 3.57,3.57 0 0 0 1.33,0 7.72,7.72 0 0 1 2.49,0.08 4.92,4.92 0 0 1 2,0.83 2.55,2.55 0 0 0 1.09,0.44 3.63,3.63 0 0 0 1.34,0 7.18,7.18 0 0 1 2.49,0.08 5.08,5.08 0 0 1 2.05,0.82 2.44,2.44 0 0 0 1.09,0.45 z"
       id="path16854"
       style="stroke-width:0.709068" />
    <g
       class="cls-27"
       clip-path="url(#clip-path-2)"
       id="g16860"
       style="stroke-width:0.709068">
      <path
         class="cls-26"
         d="m 13.23,28.73 a 4.86,4.86 0 0 1 2,0.82 2.44,2.44 0 0 0 1.09,0.44 3.57,3.57 0 0 0 1.33,0 7.18,7.18 0 0 1 2.49,0.08 5.09,5.09 0 0 1 2,0.82 2.43,2.43 0 0 0 1.09,0.45 3.85,3.85 0 0 0 1.34,0 7.18,7.18 0 0 1 2.49,0.08 4.93,4.93 0 0 1 2.05,0.82 2.29,2.29 0 0 0 1.09,0.44"
         id="path16856" />
      <path
         class="cls-26"
         d="m 12.64,29.71 a 4.8,4.8 0 0 1 2,0.82 2.5,2.5 0 0 0 1.09,0.44 3.57,3.57 0 0 0 1.33,0 7.44,7.44 0 0 1 2.49,0.08 5.09,5.09 0 0 1 2,0.82 2.43,2.43 0 0 0 1.09,0.45 3.86,3.86 0 0 0 1.34,0 7.18,7.18 0 0 1 2.49,0.08 4.94,4.94 0 0 1 2.05,0.82 2.44,2.44 0 0 0 1.09,0.45"
         id="path16858" />
    </g>
  </g>
  <metadata
     id="metadata16930">
    <rdf:RDF>
      <cc:Work
         rdf:about="">
        <dc:title>19-Cooking</dc:title>
      </cc:Work>
    </rdf:RDF>
  </metadata>
</svg>
